<svg width="20" height="21" viewBox="0 0 20 21" fill="none" xmlns="http://www.w3.org/2000/svg">
<path fill-rule="evenodd" clip-rule="evenodd" d="M9.49625 2.6394C9.21125 2.6394 8.9625 2.8074 8.8375 3.05547C8.83625 3.05809 8.8325 3.06334 8.8325 3.06334C8.8325 3.06334 8.83125 3.06728 8.8275 3.07384C8.4825 3.73272 7.71 3.99784 7.06125 3.6789C6.4125 3.35997 6.11 2.56722 6.37125 1.86765C6.4825 1.5684 6.54375 1.40434 6.54375 1.40434C6.54375 1.40434 6.545 1.40303 6.545 1.40172C6.96625 0.576154 7.79625 0.0144043 8.75 0.0144043H17.5C18.88 0.0144043 20 1.1904 20 2.6394V15.0937C20 17.4142 18.0013 18.4642 18.0013 18.4642L14.6463 20.8149L14.645 20.8162C14.1938 21.0722 13.6463 21.0603 13.2063 20.7834C12.765 20.5065 12.4963 20.0064 12.4975 19.4683C12.4988 19.341 12.4988 19.2648 12.4988 19.2648V18.3894H8.74125C7.7875 18.3894 6.9575 17.8263 6.53625 17.0008C6.535 17.0008 6.535 16.9995 6.535 16.9995C6.535 16.9995 6.47375 16.8354 6.3625 16.5362C6.10125 15.8353 6.4025 15.0425 7.05125 14.7236C7.7 14.406 8.47375 14.6698 8.81875 15.3287L8.82875 15.3483C8.95375 15.5951 9.20125 15.7644 9.4875 15.7644H12.4988L12.5 11.8269V7.48515C12.5 5.12659 14.3788 4.25247 14.3788 4.25247L17.4063 2.6394H9.49625V2.6394V2.6394ZM5.7325 7.8894L5.36625 7.50484C4.87875 6.99297 4.87875 6.16084 5.36625 5.64897C5.85375 5.13578 6.64625 5.13578 7.13375 5.64897L9.61625 8.25428C9.6225 8.26084 9.6275 8.2674 9.63375 8.27397C9.81 8.45772 9.9225 8.68347 9.97125 8.91972C9.98625 8.99322 9.99625 9.06934 9.99875 9.14547L10 9.18615V9.24259L9.99875 9.2439V9.27278L9.9975 9.27409V9.28853C9.995 9.33315 9.99 9.37778 9.9825 9.42109L9.98125 9.42634V9.43028L9.98 9.43422V9.43947L9.97875 9.44209V9.4434C9.935 9.69409 9.82 9.93559 9.63375 10.1298C9.6275 10.1364 9.6225 10.143 9.61625 10.1482L7.13375 12.7548C6.64625 13.2667 5.85375 13.2667 5.36625 12.7548C4.87875 12.243 4.87875 11.4108 5.36625 10.899L5.7325 10.5144H1.25C0.56 10.5144 0 9.9264 0 9.2019C0 8.4774 0.56 7.8894 1.25 7.8894H5.7325V7.8894Z" fill="black"/>
</svg>
