<svg width="257" height="26" viewBox="0 0 257 26" fill="none" xmlns="http://www.w3.org/2000/svg">
<g clip-path="url(#clip0)">
<path d="M32.4888 5.04602H36.6451V11.3434H43.7614V5.04602H47.9177V21.327H43.7614V14.7224H36.6451V21.327H32.4888V5.04602Z" fill="black"/>
<path d="M59.2644 21.6957C58.131 21.6957 57.0499 21.5318 56.0211 21.2042C55.0135 20.856 54.1319 20.3441 53.3762 19.6682C52.6205 18.9719 52.0221 18.1016 51.5813 17.0571C51.1406 15.9922 50.9202 14.7532 50.9202 13.3402V12.7258C50.9202 11.3742 51.1301 10.1966 51.5498 9.19315C51.9697 8.18966 52.547 7.36024 53.2817 6.70492C54.0165 6.02911 54.8666 5.52736 55.8323 5.19971C56.798 4.85155 57.8369 4.67749 58.9495 4.67749C61.5735 4.67749 63.5677 5.3533 64.9322 6.70492C66.2968 8.05654 66.979 10.0123 66.979 12.5722V14.2925H55.1711C55.1919 15.0092 55.318 15.6338 55.5488 16.1663C55.7796 16.6783 56.0842 17.0981 56.4619 17.4258C56.8399 17.7534 57.2703 17.9992 57.753 18.163C58.2568 18.3064 58.7606 18.378 59.2644 18.378C60.3351 18.378 61.1432 18.2244 61.689 17.9173C62.2347 17.6101 62.6231 17.1595 62.8539 16.5656H66.6641C66.3283 18.2654 65.4991 19.5454 64.1765 20.4055C62.8539 21.2656 61.2167 21.6957 59.2644 21.6957ZM59.1071 7.99511C58.6241 7.99511 58.1414 8.05654 57.6587 8.17941C57.1968 8.30229 56.7873 8.49684 56.4304 8.76308C56.0737 9.0293 55.7796 9.3877 55.5488 9.83823C55.318 10.2888 55.1919 10.8315 55.1711 11.4663H62.9485C62.9274 10.7905 62.812 10.2273 62.602 9.7768C62.4132 9.32624 62.1404 8.96787 61.7835 8.70163C61.4475 8.43541 61.0486 8.2511 60.587 8.1487C60.1251 8.04631 59.6317 7.99511 59.1071 7.99511Z" fill="black"/>
<path d="M73.7271 8.4251H68.4058V5.04602H83.2048V8.4251H77.8835V21.327H73.7271V8.4251Z" fill="black"/>
<path d="M92.9663 21.6957C91.8326 21.6957 90.7515 21.5318 89.723 21.2042C88.7154 20.856 87.8338 20.3338 87.0781 19.6375C86.3224 18.9412 85.724 18.0708 85.2832 17.0264C84.8425 15.982 84.6221 14.7532 84.6221 13.3402V12.7258C84.6221 11.3946 84.8425 10.2273 85.2832 9.22385C85.724 8.22037 86.3224 7.38073 87.0781 6.70492C87.8338 6.02911 88.7154 5.52736 89.723 5.19971C90.7515 4.85155 91.8326 4.67749 92.9663 4.67749C94.0998 4.67749 95.1705 4.85155 96.1781 5.19971C97.1857 5.52736 98.0673 6.02911 98.823 6.70492C99.5998 7.38073 100.208 8.22037 100.649 9.22385C101.09 10.2273 101.311 11.3946 101.311 12.7258V13.3402C101.311 14.7328 101.09 15.9513 100.649 16.9957C100.208 18.0401 99.5998 18.9105 98.823 19.6068C98.0673 20.3031 97.1857 20.8253 96.1781 21.1735C95.1705 21.5216 94.0998 21.6957 92.9663 21.6957ZM92.9663 18.2552C94.1417 18.2552 95.1179 17.8456 95.8947 17.0264C96.6923 16.2073 97.0912 14.9785 97.0912 13.3402V12.7258C97.0912 11.2308 96.6923 10.0942 95.8947 9.31601C95.1179 8.51734 94.1417 8.11798 92.9663 8.11798C91.7698 8.11798 90.783 8.51734 90.0065 9.31601C89.2296 10.0942 88.8415 11.2308 88.8415 12.7258V13.3402C88.8415 14.999 89.2296 16.238 90.0065 17.0571C90.783 17.8558 91.7698 18.2552 92.9663 18.2552Z" fill="black"/>
<path d="M104.14 21.6956C103.972 21.6956 103.762 21.6853 103.51 21.6649C103.258 21.6649 103.048 21.6444 102.88 21.6034V17.9479C102.985 17.9684 103.143 17.9786 103.352 17.9786C103.751 17.9786 104.098 17.866 104.392 17.6407C104.685 17.395 104.927 16.9854 105.116 16.412C105.326 15.8386 105.473 15.0808 105.557 14.1388C105.662 13.1762 105.714 11.9885 105.714 10.5754V5.04602H118.939V21.327H114.783V8.4251H109.556V11.1898C109.556 13.2991 109.44 15.0399 109.209 16.412C108.999 17.7636 108.663 18.8285 108.202 19.6067C107.761 20.3849 107.194 20.9276 106.501 21.2348C105.83 21.542 105.042 21.6956 104.14 21.6956Z" fill="black"/>
<path d="M130.266 21.6957C129.132 21.6957 128.051 21.5318 127.023 21.2042C126.015 20.856 125.133 20.3338 124.378 19.6375C123.622 18.9412 123.024 18.0708 122.583 17.0264C122.142 15.982 121.922 14.7532 121.922 13.3402V12.7258C121.922 11.3946 122.142 10.2273 122.583 9.22385C123.024 8.22037 123.622 7.38073 124.378 6.70492C125.133 6.02911 126.015 5.52736 127.023 5.19971C128.051 4.85155 129.132 4.67749 130.266 4.67749C131.4 4.67749 132.47 4.85155 133.478 5.19971C134.485 5.52736 135.367 6.02911 136.123 6.70492C136.899 7.38073 137.508 8.22037 137.949 9.22385C138.39 10.2273 138.61 11.3946 138.61 12.7258V13.3402C138.61 14.7328 138.39 15.9513 137.949 16.9957C137.508 18.0401 136.899 18.9105 136.123 19.6068C135.367 20.3031 134.485 20.8253 133.478 21.1735C132.47 21.5216 131.4 21.6957 130.266 21.6957ZM130.266 18.2552C131.442 18.2552 132.418 17.8456 133.194 17.0264C133.992 16.2073 134.391 14.9785 134.391 13.3402V12.7258C134.391 11.2308 133.992 10.0942 133.194 9.31601C132.418 8.51734 131.442 8.11798 130.266 8.11798C129.069 8.11798 128.083 8.51734 127.306 9.31601C126.529 10.0942 126.141 11.2308 126.141 12.7258V13.3402C126.141 14.999 126.529 16.238 127.306 17.0571C128.083 17.8558 129.069 18.2552 130.266 18.2552Z" fill="black"/>
<path d="M141.904 5.04602H153.87V8.4251H146.061V21.327H141.904V5.04602Z" fill="black"/>
<path d="M156.38 5.04602H160.536V15.4904L167.967 5.04602H171.809V21.327H167.652V10.8826L160.222 21.327H156.38V5.04602Z" fill="black"/>
<path d="M178.968 15.2139C177.687 14.8043 176.753 14.19 176.166 13.3708C175.578 12.5516 175.284 11.5891 175.284 10.4832C175.284 9.68456 175.42 8.95756 175.693 8.30221C175.987 7.6264 176.417 7.05298 176.984 6.58196C177.551 6.09046 178.265 5.7116 179.125 5.44538C180.007 5.17914 181.035 5.04602 182.211 5.04602H190.083V21.327H185.927V15.7054H182.935L179.314 21.327H174.654L178.968 15.2139ZM179.44 10.4832C179.44 11.1795 179.671 11.6915 180.133 12.0192C180.616 12.3468 181.256 12.5107 182.054 12.5107H185.927V8.4251H182.054C181.256 8.4251 180.616 8.59916 180.133 8.9473C179.671 9.27497 179.44 9.78696 179.44 10.4832Z" fill="black"/>
<path fill-rule="evenodd" clip-rule="evenodd" d="M5.37254 13.4883C5.23984 13.4779 5.10569 13.4727 4.97028 13.4727C2.22527 13.4727 0 15.642 0 18.3181C0 20.9942 2.22527 23.1636 4.97028 23.1636C7.71529 23.1636 9.94057 20.9942 9.94057 18.3181C9.94057 18.1127 9.92745 17.9103 9.90199 17.7116C7.55156 17.528 5.66229 15.7504 5.37254 13.4883Z" fill="#5D00F5"/>
<path fill-rule="evenodd" clip-rule="evenodd" d="M9.94057 7.68176C9.94057 5.0057 7.71529 2.8363 4.97028 2.8363C2.22527 2.8363 2.72711e-07 5.0057 0 7.68176C-4.93787e-07 10.3578 2.22527 12.5272 4.97028 12.5272C5.0974 12.5272 5.2234 12.5226 5.3481 12.5134C5.5318 10.131 7.48263 8.22918 9.92643 8.05008C9.93579 7.92852 9.94057 7.80568 9.94057 7.68176Z" fill="#EB236B"/>
<path fill-rule="evenodd" clip-rule="evenodd" d="M15.2585 12.4896C15.4623 12.5144 15.67 12.5272 15.8807 12.5272C18.6257 12.5272 20.851 10.3578 20.851 7.68176C20.851 5.0057 18.6257 2.8363 15.8807 2.8363C13.1357 2.8363 10.9104 5.0057 10.9104 7.68176C10.9104 7.81377 10.9158 7.94455 10.9265 8.07391C13.2468 8.35639 15.0703 10.1982 15.2585 12.4896Z" fill="#4BD0A0"/>
<path fill-rule="evenodd" clip-rule="evenodd" d="M10.9522 17.6864C10.9246 17.8932 10.9104 18.104 10.9104 18.3181C10.9104 20.9942 13.1357 23.1636 15.8807 23.1636C18.6257 23.1636 20.851 20.9942 20.851 18.3181C20.851 15.642 18.6257 13.4727 15.8807 13.4727C15.6611 13.4727 15.4448 13.4865 15.2327 13.5135C14.9428 15.6843 13.179 17.4038 10.9522 17.6864Z" fill="#0066FF"/>
</g>
<defs>
<clipPath id="clip0">
<rect width="257" height="26" fill="white"/>
</clipPath>
</defs>
</svg>
